<svg width="500" height="500" viewBox="0 0 500 500" fill="none" xmlns="http://www.w3.org/2000/svg">
<rect width="500" height="500" fill="white"/>
<path d="M420.564 266.315L412.916 255.237L406.484 266.315H393.263L406.413 245.946L392.905 226.435H406.627L414.274 237.441L420.707 226.435H433.928L420.564 246.518L434.286 266.315H420.564Z" fill="black"/>
<path d="M375.769 267.458C371.862 267.458 368.336 266.624 365.191 264.957C362.094 263.289 359.64 260.907 357.83 257.81C356.067 254.713 355.186 251.092 355.186 246.947C355.186 242.849 356.091 239.252 357.901 236.155C359.712 233.01 362.189 230.604 365.334 228.936C368.479 227.269 372.004 226.435 375.911 226.435C379.818 226.435 383.344 227.269 386.489 228.936C389.633 230.604 392.111 233.01 393.922 236.155C395.732 239.252 396.637 242.849 396.637 246.947C396.637 251.044 395.708 254.665 393.85 257.81C392.04 260.907 389.538 263.289 386.346 264.957C383.201 266.624 379.675 267.458 375.769 267.458ZM375.769 256.881C378.103 256.881 380.08 256.023 381.7 254.308C383.368 252.593 384.202 250.139 384.202 246.947C384.202 243.754 383.392 241.301 381.772 239.585C380.2 237.87 378.246 237.012 375.911 237.012C373.529 237.012 371.552 237.87 369.98 239.585C368.407 241.253 367.621 243.707 367.621 246.947C367.621 250.139 368.383 252.593 369.908 254.308C371.48 256.023 373.434 256.881 375.769 256.881Z" fill="black"/>
<path d="M343.473 240.554C346.379 241.173 348.714 242.627 350.477 244.914C352.24 247.153 353.121 249.726 353.121 252.632C353.121 256.825 351.644 260.16 348.69 262.638C345.784 265.068 341.71 266.283 336.469 266.283H313.099V216.112H335.683C340.781 216.112 344.759 217.279 347.618 219.614C350.524 221.948 351.978 225.117 351.978 229.119C351.978 232.073 351.191 234.527 349.619 236.48C348.094 238.434 346.046 239.792 343.473 240.554ZM325.32 236.409H333.324C335.325 236.409 336.85 235.98 337.898 235.122C338.994 234.217 339.542 232.907 339.542 231.192C339.542 229.476 338.994 228.166 337.898 227.261C336.85 226.356 335.325 225.903 333.324 225.903H325.32V236.409ZM334.325 256.42C336.374 256.42 337.946 255.967 339.042 255.062C340.185 254.109 340.757 252.751 340.757 250.988C340.757 249.226 340.161 247.844 338.97 246.843C337.827 245.843 336.231 245.342 334.182 245.342H325.32V256.42H334.325Z" fill="black"/>
<path d="M295.311 225.641C299.98 225.641 303.697 227.165 306.46 230.215C309.271 233.216 310.677 237.361 310.677 242.65V265.949H298.527V244.294C298.527 241.626 297.836 239.553 296.455 238.076C295.073 236.599 293.215 235.861 290.88 235.861C288.545 235.861 286.687 236.599 285.305 238.076C283.924 239.553 283.233 241.626 283.233 244.294V265.949H271.012V226.069H283.233V231.358C284.472 229.595 286.139 228.213 288.236 227.213C290.332 226.165 292.691 225.641 295.311 225.641Z" fill="black"/>
<path d="M247.919 266.267C244.012 266.267 240.486 265.433 237.342 263.765C234.245 262.098 231.791 259.715 229.98 256.618C228.217 253.521 227.336 249.9 227.336 245.755C227.336 241.658 228.241 238.06 230.052 234.963C231.862 231.819 234.34 229.413 237.484 227.745C240.629 226.077 244.155 225.244 248.062 225.244C251.969 225.244 255.495 226.077 258.639 227.745C261.784 229.413 264.261 231.819 266.072 234.963C267.882 238.06 268.788 241.658 268.788 245.755C268.788 249.853 267.859 253.474 266 256.618C264.19 259.715 261.689 262.098 258.496 263.765C255.352 265.433 251.826 266.267 247.919 266.267ZM247.919 255.689C250.254 255.689 252.231 254.832 253.851 253.116C255.518 251.401 256.352 248.947 256.352 245.755C256.352 242.563 255.542 240.109 253.922 238.394C252.35 236.679 250.396 235.821 248.062 235.821C245.68 235.821 243.702 236.679 242.13 238.394C240.558 240.061 239.771 242.515 239.771 245.755C239.771 248.947 240.534 251.401 242.058 253.116C243.631 254.832 245.584 255.689 247.919 255.689Z" fill="black"/>
<path d="M231.283 225.641L206.269 284.459H193.118L202.266 264.162L186.043 225.641H199.693L208.913 250.583L218.061 225.641H231.283Z" fill="black"/>
<path d="M143.956 245.684C143.956 241.586 144.718 237.989 146.243 234.892C147.815 231.795 149.936 229.413 152.604 227.745C155.272 226.077 158.25 225.244 161.537 225.244C164.348 225.244 166.802 225.815 168.899 226.959C171.043 228.102 172.686 229.603 173.83 231.461V225.815H186.051V265.695H173.83V260.049C172.639 261.907 170.971 263.408 168.827 264.551C166.731 265.695 164.277 266.267 161.466 266.267C158.226 266.267 155.272 265.433 152.604 263.765C149.936 262.05 147.815 259.644 146.243 256.547C144.718 253.402 143.956 249.781 143.956 245.684ZM173.83 245.755C173.83 242.706 172.972 240.3 171.257 238.537C169.589 236.774 167.541 235.892 165.111 235.892C162.681 235.892 160.608 236.774 158.893 238.537C157.225 240.252 156.392 242.634 156.392 245.684C156.392 248.733 157.225 251.163 158.893 252.973C160.608 254.736 162.681 255.618 165.111 255.618C167.541 255.618 169.589 254.736 171.257 252.973C172.972 251.211 173.83 248.804 173.83 245.755Z" fill="black"/>
<path d="M129.178 232.716C130.608 230.524 132.394 228.809 134.538 227.57C136.682 226.284 139.065 225.641 141.685 225.641V238.576H138.326C135.277 238.576 132.99 239.243 131.465 240.578C129.94 241.864 129.178 244.151 129.178 247.439V265.949H116.957V226.069H129.178V232.716Z" fill="black"/>
<path d="M65.7139 240.586C65.7139 235.631 66.7859 231.223 68.93 227.364C71.074 223.457 74.0519 220.432 77.8635 218.288C81.7228 216.096 86.0824 215 90.9423 215C96.898 215 101.996 216.572 106.237 219.717C110.477 222.862 113.312 227.15 114.741 232.581H101.305C100.305 230.485 98.8753 228.889 97.0171 227.793C95.2066 226.697 93.134 226.149 90.7993 226.149C87.0353 226.149 83.986 227.459 81.6514 230.08C79.3167 232.7 78.1494 236.202 78.1494 240.586C78.1494 244.969 79.3167 248.471 81.6514 251.092C83.986 253.712 87.0353 255.022 90.7993 255.022C93.134 255.022 95.2066 254.474 97.0171 253.379C98.8753 252.283 100.305 250.687 101.305 248.59H114.741C113.312 254.022 110.477 258.31 106.237 261.455C101.996 264.552 96.898 266.1 90.9423 266.1C86.0824 266.1 81.7228 265.028 77.8635 262.884C74.0519 260.692 71.074 257.667 68.93 253.807C66.7859 249.948 65.7139 245.541 65.7139 240.586Z" fill="black"/>
</svg>
