<svg width="700" height="700" viewBox="0 0 700 700" fill="none" xmlns="http://www.w3.org/2000/svg">
<rect width="700" height="700" fill="url(#paint0_linear_53_28)"/>
<path d="M588.789 372.84L578.083 357.331L569.078 372.84H550.568L568.978 344.324L550.067 317.009H569.278L579.984 332.417L588.989 317.009H607.5L588.789 345.125L608 372.84H588.789Z" fill="white"/>
<path d="M526.077 374.441C520.607 374.441 515.671 373.274 511.269 370.939C506.933 368.604 503.498 365.269 500.963 360.933C498.495 356.598 497.261 351.528 497.261 345.725C497.261 339.988 498.528 334.952 501.063 330.616C503.598 326.214 507.066 322.845 511.469 320.511C515.871 318.176 520.807 317.009 526.277 317.009C531.747 317.009 536.683 318.176 541.085 320.511C545.488 322.845 548.956 326.214 551.491 330.616C554.026 334.952 555.293 339.988 555.293 345.725C555.293 351.461 553.993 356.531 551.391 360.933C548.856 365.269 545.354 368.604 540.885 370.939C536.483 373.274 531.547 374.441 526.077 374.441ZM526.077 359.633C529.345 359.633 532.114 358.432 534.382 356.031C536.716 353.629 537.883 350.194 537.883 345.725C537.883 341.256 536.75 337.82 534.482 335.419C532.28 333.018 529.545 331.817 526.277 331.817C522.942 331.817 520.174 333.018 517.972 335.419C515.771 337.754 514.67 341.189 514.67 345.725C514.67 350.194 515.738 353.629 517.872 356.031C520.074 358.432 522.808 359.633 526.077 359.633Z" fill="white"/>
<path d="M480.863 336.775C484.932 337.642 488.2 339.677 490.668 342.879C493.136 346.014 494.37 349.616 494.37 353.685C494.37 359.555 492.302 364.224 488.167 367.693C484.098 371.095 478.395 372.795 471.057 372.795H438.339V302.556H469.957C477.094 302.556 482.664 304.19 486.666 307.459C490.735 310.727 492.769 315.163 492.769 320.766C492.769 324.902 491.669 328.337 489.468 331.072C487.333 333.807 484.465 335.708 480.863 336.775ZM455.448 330.972H466.655C469.456 330.972 471.591 330.372 473.058 329.171C474.593 327.904 475.36 326.069 475.36 323.668C475.36 321.267 474.593 319.432 473.058 318.165C471.591 316.898 469.456 316.264 466.655 316.264H455.448V330.972ZM468.056 358.988C470.924 358.988 473.125 358.354 474.659 357.087C476.26 355.753 477.061 353.852 477.061 351.383C477.061 348.915 476.227 346.981 474.559 345.58C472.958 344.179 470.724 343.479 467.855 343.479H455.448V358.988H468.056Z" fill="white"/>
<path d="M413.436 315.897C419.973 315.897 425.176 318.032 429.045 322.301C432.98 326.503 434.948 332.306 434.948 339.71V372.329H417.939V342.012C417.939 338.276 416.971 335.375 415.037 333.307C413.103 331.239 410.501 330.205 407.233 330.205C403.964 330.205 401.363 331.239 399.428 333.307C397.494 335.375 396.527 338.276 396.527 342.012V372.329H379.417V316.497H396.527V323.901C398.261 321.433 400.596 319.499 403.53 318.098C406.465 316.631 409.767 315.897 413.436 315.897Z" fill="white"/>
<path d="M347.088 372.773C341.618 372.773 336.682 371.606 332.279 369.271C327.944 366.937 324.508 363.602 321.974 359.266C319.506 354.93 318.271 349.861 318.271 344.057C318.271 338.321 319.539 333.285 322.074 328.949C324.608 324.546 328.077 321.178 332.479 318.843C336.882 316.509 341.818 315.341 347.288 315.341C352.757 315.341 357.694 316.509 362.096 318.843C366.498 321.178 369.967 324.546 372.502 328.949C375.037 333.285 376.304 338.321 376.304 344.057C376.304 349.794 375.003 354.863 372.402 359.266C369.867 363.602 366.365 366.937 361.896 369.271C357.493 371.606 352.557 372.773 347.088 372.773ZM347.088 357.965C350.356 357.965 353.124 356.764 355.392 354.363C357.727 351.962 358.894 348.527 358.894 344.057C358.894 339.588 357.76 336.153 355.492 333.752C353.291 331.35 350.556 330.15 347.288 330.15C343.953 330.15 341.184 331.35 338.983 333.752C336.782 336.086 335.681 339.522 335.681 344.057C335.681 348.527 336.748 351.962 338.883 354.363C341.084 356.764 343.819 357.965 347.088 357.965Z" fill="white"/>
<path d="M323.796 315.897L288.777 398.243H270.366L283.174 369.827L260.461 315.897H279.572L292.479 350.817L305.286 315.897H323.796Z" fill="white"/>
<path d="M201.539 343.957C201.539 338.221 202.606 333.185 204.741 328.849C206.942 324.513 209.91 321.178 213.646 318.843C217.381 316.509 221.55 315.341 226.153 315.341C230.088 315.341 233.524 316.142 236.459 317.743C239.46 319.344 241.762 321.445 243.362 324.046V316.142H260.472V371.973H243.362V364.069C241.695 366.67 239.36 368.771 236.359 370.372C233.424 371.973 229.988 372.773 226.053 372.773C221.517 372.773 217.381 371.606 213.646 369.271C209.91 366.87 206.942 363.502 204.741 359.166C202.606 354.763 201.539 349.694 201.539 343.957ZM243.362 344.057C243.362 339.788 242.162 336.42 239.76 333.952C237.426 331.484 234.558 330.25 231.156 330.25C227.754 330.25 224.852 331.484 222.451 333.952C220.116 336.353 218.949 339.688 218.949 343.957C218.949 348.226 220.116 351.628 222.451 354.163C224.852 356.631 227.754 357.865 231.156 357.865C234.558 357.865 237.426 356.631 239.76 354.163C242.162 351.695 243.362 348.326 243.362 344.057Z" fill="white"/>
<path d="M180.85 325.803C182.851 322.734 185.352 320.333 188.354 318.598C191.356 316.797 194.691 315.897 198.36 315.897V334.007H193.657C189.388 334.007 186.186 334.941 184.052 336.809C181.917 338.61 180.85 341.811 180.85 346.414V372.329H163.74V316.497H180.85V325.803Z" fill="white"/>
<path d="M92 336.82C92 329.883 93.5008 323.713 96.5025 318.31C99.5042 312.84 103.673 308.604 109.01 305.603C114.413 302.534 120.516 301 127.32 301C135.658 301 142.795 303.201 148.732 307.604C154.668 312.006 158.637 318.01 160.638 325.614H141.828C140.427 322.679 138.426 320.444 135.825 318.91C133.29 317.376 130.388 316.609 127.12 316.609C121.85 316.609 117.581 318.443 114.312 322.112C111.044 325.781 109.41 330.683 109.41 336.82C109.41 342.957 111.044 347.86 114.312 351.528C117.581 355.197 121.85 357.031 127.12 357.031C130.388 357.031 133.29 356.264 135.825 354.73C138.426 353.196 140.427 350.961 141.828 348.026H160.638C158.637 355.631 154.668 361.634 148.732 366.036C142.795 370.372 135.658 372.54 127.32 372.54C120.516 372.54 114.413 371.039 109.01 368.038C103.673 364.969 99.5042 360.733 96.5025 355.33C93.5008 349.927 92 343.757 92 336.82Z" fill="white"/>
<defs>
<linearGradient id="paint0_linear_53_28" x1="0" y1="700" x2="828.471" y2="447.575" gradientUnits="userSpaceOnUse">
<stop stop-color="#D92121"/>
<stop offset="0.174105" stop-color="#FF7034"/>
<stop offset="0.317834" stop-color="#FBBC2A"/>
<stop offset="0.528219" stop-color="#00C696"/>
<stop offset="0.719403" stop-color="#1D75FB"/>
<stop offset="0.876273" stop-color="#5A2BB6"/>
<stop offset="1" stop-color="#9C5FD0"/>
</linearGradient>
</defs>
</svg>
