<svg width="929" height="175" viewBox="0 0 929 175" fill="none" xmlns="http://www.w3.org/2000/svg">
<path d="M893.72 129.24L874.46 101.34L858.26 129.24H824.96L858.08 77.9398L824.06 28.7998H858.62L877.88 56.5198L894.08 28.7998H927.38L893.72 79.3798L928.28 129.24H893.72Z" fill="url(#paint0_linear_54_70)"/>
<path d="M780.9 132.12C771.06 132.12 762.18 130.02 754.26 125.82C746.46 121.62 740.28 115.62 735.72 107.82C731.28 100.02 729.06 90.8998 729.06 80.4598C729.06 70.1398 731.34 61.0798 735.9 53.2798C740.46 45.3598 746.7 39.2998 754.62 35.0998C762.54 30.8998 771.42 28.7998 781.26 28.7998C791.1 28.7998 799.98 30.8998 807.9 35.0998C815.82 39.2998 822.06 45.3598 826.62 53.2798C831.18 61.0798 833.46 70.1398 833.46 80.4598C833.46 90.7798 831.12 99.8998 826.44 107.82C821.88 115.62 815.58 121.62 807.54 125.82C799.62 130.02 790.74 132.12 780.9 132.12ZM780.9 105.48C786.78 105.48 791.76 103.32 795.84 98.9998C800.04 94.6798 802.14 88.4998 802.14 80.4598C802.14 72.4198 800.1 66.2398 796.02 61.9198C792.06 57.5998 787.14 55.4398 781.26 55.4398C775.26 55.4398 770.28 57.5998 766.32 61.9198C762.36 66.1198 760.38 72.2998 760.38 80.4598C760.38 88.4998 762.3 94.6798 766.14 98.9998C770.1 103.32 775.02 105.48 780.9 105.48Z" fill="url(#paint1_linear_54_70)"/>
<path d="M699.56 64.3598C706.88 65.9198 712.76 69.5798 717.2 75.3398C721.64 80.9798 723.86 87.4598 723.86 94.7798C723.86 105.34 720.14 113.74 712.7 119.98C705.38 126.1 695.12 129.16 681.92 129.16H623.06V2.7998H679.94C692.78 2.7998 702.8 5.7398 710 11.6198C717.32 17.4998 720.98 25.4798 720.98 35.5598C720.98 42.9998 719 49.1798 715.04 54.0998C711.2 59.0198 706.04 62.4398 699.56 64.3598ZM653.84 53.9198H674C679.04 53.9198 682.88 52.8398 685.52 50.6798C688.28 48.3998 689.66 45.0998 689.66 40.7798C689.66 36.4598 688.28 33.1598 685.52 30.8798C682.88 28.5998 679.04 27.4598 674 27.4598H653.84V53.9198ZM676.52 104.32C681.68 104.32 685.64 103.18 688.4 100.9C691.28 98.4998 692.72 95.0798 692.72 90.6398C692.72 86.1998 691.22 82.7198 688.22 80.1998C685.34 77.6798 681.32 76.4198 676.16 76.4198H653.84V104.32H676.52Z" fill="url(#paint2_linear_54_70)"/>
<path d="M578.26 26.7998C590.02 26.7998 599.38 30.6398 606.34 38.3198C613.42 45.8798 616.96 56.3198 616.96 69.6398V128.32H586.36V73.7798C586.36 67.0598 584.62 61.8398 581.14 58.1198C577.66 54.3998 572.98 52.5398 567.1 52.5398C561.22 52.5398 556.54 54.3998 553.06 58.1198C549.58 61.8398 547.84 67.0598 547.84 73.7798V128.32H517.06V27.8798H547.84V41.1998C550.96 36.7598 555.16 33.2798 560.44 30.7598C565.72 28.1198 571.66 26.7998 578.26 26.7998Z" fill="url(#paint3_linear_54_70)"/>
<path d="M458.9 129.12C449.06 129.12 440.18 127.02 432.26 122.82C424.46 118.62 418.28 112.62 413.72 104.82C409.28 97.0198 407.06 87.8998 407.06 77.4598C407.06 67.1398 409.34 58.0798 413.9 50.2798C418.46 42.3598 424.7 36.2998 432.62 32.0998C440.54 27.8998 449.42 25.7998 459.26 25.7998C469.1 25.7998 477.98 27.8998 485.9 32.0998C493.82 36.2998 500.06 42.3598 504.62 50.2798C509.18 58.0798 511.46 67.1398 511.46 77.4598C511.46 87.7798 509.12 96.8998 504.44 104.82C499.88 112.62 493.58 118.62 485.54 122.82C477.62 127.02 468.74 129.12 458.9 129.12ZM458.9 102.48C464.78 102.48 469.76 100.32 473.84 95.9998C478.04 91.6798 480.14 85.4998 480.14 77.4598C480.14 69.4198 478.1 63.2398 474.02 58.9198C470.06 54.5998 465.14 52.4398 459.26 52.4398C453.26 52.4398 448.28 54.5998 444.32 58.9198C440.36 63.1198 438.38 69.2998 438.38 77.4598C438.38 85.4998 440.3 91.6798 444.14 95.9998C448.1 100.32 453.02 102.48 458.9 102.48Z" fill="url(#paint4_linear_54_70)"/>
<path d="M417 26.7998L354 174.94H320.88L343.92 123.82L303.06 26.7998H337.44L360.66 89.6198L383.7 26.7998H417Z" fill="url(#paint5_linear_54_70)"/>
<path d="M197.06 77.2798C197.06 66.9598 198.98 57.8998 202.82 50.0998C206.78 42.2998 212.12 36.2998 218.84 32.0998C225.56 27.8998 233.06 25.7998 241.34 25.7998C248.42 25.7998 254.6 27.2398 259.88 30.1198C265.28 32.9998 269.42 36.7798 272.3 41.4598V27.2398H303.08V127.68H272.3V113.46C269.3 118.14 265.1 121.92 259.7 124.8C254.42 127.68 248.24 129.12 241.16 129.12C233 129.12 225.56 127.02 218.84 122.82C212.12 118.5 206.78 112.44 202.82 104.64C198.98 96.7198 197.06 87.5998 197.06 77.2798ZM272.3 77.4598C272.3 69.7798 270.14 63.7198 265.82 59.2798C261.62 54.8398 256.46 52.6198 250.34 52.6198C244.22 52.6198 239 54.8398 234.68 59.2798C230.48 63.5998 228.38 69.5998 228.38 77.2798C228.38 84.9598 230.48 91.0798 234.68 95.6398C239 100.08 244.22 102.3 250.34 102.3C256.46 102.3 261.62 100.08 265.82 95.6398C270.14 91.1998 272.3 85.1398 272.3 77.4598Z" fill="url(#paint6_linear_54_70)"/>
<path d="M159.84 44.6198C163.44 39.0998 167.94 34.7798 173.34 31.6598C178.74 28.4198 184.74 26.7998 191.34 26.7998V59.3798H182.88C175.2 59.3798 169.44 61.0598 165.6 64.4198C161.76 67.6598 159.84 73.4198 159.84 81.6998V128.32H129.06V27.8798H159.84V44.6198Z" fill="url(#paint7_linear_54_70)"/>
<path d="M0 64.44C0 51.96 2.7 40.86 8.1 31.14C13.5 21.3 21 13.68 30.6 8.28C40.32 2.76 51.3 0 63.54 0C78.54 0 91.38 3.95999 102.06 11.88C112.74 19.8 119.88 30.6 123.48 44.28H89.64C87.12 39 83.52 34.98 78.84 32.22C74.28 29.46 69.06 28.08 63.18 28.08C53.7 28.08 46.02 31.38 40.14 37.98C34.26 44.58 31.32 53.4 31.32 64.44C31.32 75.48 34.26 84.3 40.14 90.9C46.02 97.5 53.7 100.8 63.18 100.8C69.06 100.8 74.28 99.42 78.84 96.66C83.52 93.9 87.12 89.88 89.64 84.6H123.48C119.88 98.28 112.74 109.08 102.06 117C91.38 124.8 78.54 128.7 63.54 128.7C51.3 128.7 40.32 126 30.6 120.6C21 115.08 13.5 107.46 8.1 97.74C2.7 88.02 0 76.92 0 64.44Z" fill="url(#paint8_linear_54_70)"/>
<defs>
<linearGradient id="paint0_linear_54_70" x1="0" y1="174.94" x2="332.228" y2="-362.192" gradientUnits="userSpaceOnUse">
<stop stop-color="#D92121"/>
<stop offset="0.174105" stop-color="#FF7034"/>
<stop offset="0.317834" stop-color="#FBBC2A"/>
<stop offset="0.528219" stop-color="#00C696"/>
<stop offset="0.719403" stop-color="#1D75FB"/>
<stop offset="0.876273" stop-color="#5A2BB6"/>
<stop offset="1" stop-color="#9C5FD0"/>
</linearGradient>
<linearGradient id="paint1_linear_54_70" x1="0" y1="174.94" x2="332.228" y2="-362.192" gradientUnits="userSpaceOnUse">
<stop stop-color="#D92121"/>
<stop offset="0.174105" stop-color="#FF7034"/>
<stop offset="0.317834" stop-color="#FBBC2A"/>
<stop offset="0.528219" stop-color="#00C696"/>
<stop offset="0.719403" stop-color="#1D75FB"/>
<stop offset="0.876273" stop-color="#5A2BB6"/>
<stop offset="1" stop-color="#9C5FD0"/>
</linearGradient>
<linearGradient id="paint2_linear_54_70" x1="0" y1="174.94" x2="332.228" y2="-362.192" gradientUnits="userSpaceOnUse">
<stop stop-color="#D92121"/>
<stop offset="0.174105" stop-color="#FF7034"/>
<stop offset="0.317834" stop-color="#FBBC2A"/>
<stop offset="0.528219" stop-color="#00C696"/>
<stop offset="0.719403" stop-color="#1D75FB"/>
<stop offset="0.876273" stop-color="#5A2BB6"/>
<stop offset="1" stop-color="#9C5FD0"/>
</linearGradient>
<linearGradient id="paint3_linear_54_70" x1="0" y1="174.94" x2="332.228" y2="-362.192" gradientUnits="userSpaceOnUse">
<stop stop-color="#D92121"/>
<stop offset="0.174105" stop-color="#FF7034"/>
<stop offset="0.317834" stop-color="#FBBC2A"/>
<stop offset="0.528219" stop-color="#00C696"/>
<stop offset="0.719403" stop-color="#1D75FB"/>
<stop offset="0.876273" stop-color="#5A2BB6"/>
<stop offset="1" stop-color="#9C5FD0"/>
</linearGradient>
<linearGradient id="paint4_linear_54_70" x1="0" y1="174.94" x2="332.228" y2="-362.192" gradientUnits="userSpaceOnUse">
<stop stop-color="#D92121"/>
<stop offset="0.174105" stop-color="#FF7034"/>
<stop offset="0.317834" stop-color="#FBBC2A"/>
<stop offset="0.528219" stop-color="#00C696"/>
<stop offset="0.719403" stop-color="#1D75FB"/>
<stop offset="0.876273" stop-color="#5A2BB6"/>
<stop offset="1" stop-color="#9C5FD0"/>
</linearGradient>
<linearGradient id="paint5_linear_54_70" x1="0" y1="174.94" x2="332.228" y2="-362.192" gradientUnits="userSpaceOnUse">
<stop stop-color="#D92121"/>
<stop offset="0.174105" stop-color="#FF7034"/>
<stop offset="0.317834" stop-color="#FBBC2A"/>
<stop offset="0.528219" stop-color="#00C696"/>
<stop offset="0.719403" stop-color="#1D75FB"/>
<stop offset="0.876273" stop-color="#5A2BB6"/>
<stop offset="1" stop-color="#9C5FD0"/>
</linearGradient>
<linearGradient id="paint6_linear_54_70" x1="0" y1="174.94" x2="332.228" y2="-362.192" gradientUnits="userSpaceOnUse">
<stop stop-color="#D92121"/>
<stop offset="0.174105" stop-color="#FF7034"/>
<stop offset="0.317834" stop-color="#FBBC2A"/>
<stop offset="0.528219" stop-color="#00C696"/>
<stop offset="0.719403" stop-color="#1D75FB"/>
<stop offset="0.876273" stop-color="#5A2BB6"/>
<stop offset="1" stop-color="#9C5FD0"/>
</linearGradient>
<linearGradient id="paint7_linear_54_70" x1="0" y1="174.94" x2="332.228" y2="-362.192" gradientUnits="userSpaceOnUse">
<stop stop-color="#D92121"/>
<stop offset="0.174105" stop-color="#FF7034"/>
<stop offset="0.317834" stop-color="#FBBC2A"/>
<stop offset="0.528219" stop-color="#00C696"/>
<stop offset="0.719403" stop-color="#1D75FB"/>
<stop offset="0.876273" stop-color="#5A2BB6"/>
<stop offset="1" stop-color="#9C5FD0"/>
</linearGradient>
<linearGradient id="paint8_linear_54_70" x1="0" y1="174.94" x2="332.228" y2="-362.192" gradientUnits="userSpaceOnUse">
<stop stop-color="#D92121"/>
<stop offset="0.174105" stop-color="#FF7034"/>
<stop offset="0.317834" stop-color="#FBBC2A"/>
<stop offset="0.528219" stop-color="#00C696"/>
<stop offset="0.719403" stop-color="#1D75FB"/>
<stop offset="0.876273" stop-color="#5A2BB6"/>
<stop offset="1" stop-color="#9C5FD0"/>
</linearGradient>
</defs>
</svg>
